<mxfile host="Electron" agent="Mozilla/5.0 (Windows NT 10.0; Win64; x64) AppleWebKit/537.36 (KHTML, like Gecko) draw.io/26.2.2 Chrome/134.0.6998.178 Electron/35.1.2 Safari/537.36" version="26.2.2">
  <diagram name="Page-1" id="ZpXAIMiVmifCXDuCzjz0">
    <mxGraphModel dx="1428" dy="849" grid="1" gridSize="10" guides="1" tooltips="1" connect="1" arrows="1" fold="1" page="1" pageScale="1" pageWidth="827" pageHeight="1169" math="0" shadow="0">
      <root>
        <mxCell id="0" />
        <mxCell id="1" parent="0" />
        <mxCell id="Md0lRsH-7A19iuOy63Z8-4" style="edgeStyle=orthogonalEdgeStyle;rounded=0;orthogonalLoop=1;jettySize=auto;html=1;exitX=0.5;exitY=1;exitDx=0;exitDy=0;entryX=0.5;entryY=0;entryDx=0;entryDy=0;" edge="1" parent="1" source="Md0lRsH-7A19iuOy63Z8-1" target="Md0lRsH-7A19iuOy63Z8-3">
          <mxGeometry relative="1" as="geometry" />
        </mxCell>
        <mxCell id="Md0lRsH-7A19iuOy63Z8-1" value="Lọc xe máy" style="rounded=1;whiteSpace=wrap;html=1;" vertex="1" parent="1">
          <mxGeometry x="350" y="30" width="120" height="60" as="geometry" />
        </mxCell>
        <mxCell id="Md0lRsH-7A19iuOy63Z8-2" value="Hiển thị kết quả được lọc" style="rounded=1;whiteSpace=wrap;html=1;" vertex="1" parent="1">
          <mxGeometry x="350" y="390" width="120" height="60" as="geometry" />
        </mxCell>
        <mxCell id="Md0lRsH-7A19iuOy63Z8-6" style="edgeStyle=orthogonalEdgeStyle;rounded=0;orthogonalLoop=1;jettySize=auto;html=1;exitX=0.5;exitY=1;exitDx=0;exitDy=0;entryX=0.5;entryY=0;entryDx=0;entryDy=0;" edge="1" parent="1" source="Md0lRsH-7A19iuOy63Z8-3" target="Md0lRsH-7A19iuOy63Z8-5">
          <mxGeometry relative="1" as="geometry" />
        </mxCell>
        <mxCell id="Md0lRsH-7A19iuOy63Z8-3" value="Tải dữ liệu JSON của xe máy" style="shape=process;whiteSpace=wrap;html=1;backgroundOutline=1;" vertex="1" parent="1">
          <mxGeometry x="350" y="120" width="120" height="60" as="geometry" />
        </mxCell>
        <mxCell id="Md0lRsH-7A19iuOy63Z8-8" style="edgeStyle=orthogonalEdgeStyle;rounded=0;orthogonalLoop=1;jettySize=auto;html=1;exitX=0.5;exitY=1;exitDx=0;exitDy=0;entryX=0.5;entryY=0;entryDx=0;entryDy=0;" edge="1" parent="1" source="Md0lRsH-7A19iuOy63Z8-5" target="Md0lRsH-7A19iuOy63Z8-7">
          <mxGeometry relative="1" as="geometry" />
        </mxCell>
        <mxCell id="Md0lRsH-7A19iuOy63Z8-5" value="Chọn bộ lọc" style="shape=parallelogram;perimeter=parallelogramPerimeter;whiteSpace=wrap;html=1;fixedSize=1;" vertex="1" parent="1">
          <mxGeometry x="350" y="210" width="120" height="60" as="geometry" />
        </mxCell>
        <mxCell id="Md0lRsH-7A19iuOy63Z8-9" style="edgeStyle=orthogonalEdgeStyle;rounded=0;orthogonalLoop=1;jettySize=auto;html=1;exitX=0.5;exitY=1;exitDx=0;exitDy=0;entryX=0.5;entryY=0;entryDx=0;entryDy=0;" edge="1" parent="1" source="Md0lRsH-7A19iuOy63Z8-7" target="Md0lRsH-7A19iuOy63Z8-2">
          <mxGeometry relative="1" as="geometry" />
        </mxCell>
        <mxCell id="Md0lRsH-7A19iuOy63Z8-7" value="Cập nhật bộ lọc lên URL" style="shape=process;whiteSpace=wrap;html=1;backgroundOutline=1;" vertex="1" parent="1">
          <mxGeometry x="350" y="300" width="120" height="60" as="geometry" />
        </mxCell>
      </root>
    </mxGraphModel>
  </diagram>
</mxfile>
